<svg xmlns="http://www.w3.org/2000/svg" aria-hidden="true" style="display:none">
  <symbol id="mark" viewBox="0 0 64 48"><path d="M7 8v32m10-32v32m10-32v32M28 24h13l11-11 15 15-15 15-11-11H28" fill="none" stroke="currentColor" stroke-width="3.5" stroke-linecap="square"/><circle cx="7" cy="8" r="2" fill="currentColor"/><circle cx="17" cy="8" r="2" fill="currentColor"/><circle cx="27" cy="8" r="2" fill="currentColor"/><circle cx="7" cy="24" r="2" fill="currentColor"/><circle cx="17" cy="24" r="2" fill="currentColor"/><circle cx="27" cy="24" r="2" fill="currentColor"/><circle cx="7" cy="40" r="2" fill="currentColor"/><circle cx="17" cy="40" r="2" fill="currentColor"/><circle cx="27" cy="40" r="2" fill="currentColor"/></symbol>
  <symbol id="eye" viewBox="0 0 24 24"><path d="M2.5 12s3.5-6 9.5-6 9.5 6 9.5 6-3.5 6-9.5 6-9.5-6-9.5-6Z" fill="none" stroke="currentColor" stroke-width="1.9"/><circle cx="12" cy="12" r="2.7" fill="none" stroke="currentColor" stroke-width="1.9"/></symbol>
  <symbol id="clipboard" viewBox="0 0 24 24"><path d="M8 5H6.5A1.5 1.5 0 0 0 5 6.5v12A1.5 1.5 0 0 0 6.5 20h9a1.5 1.5 0 0 0 1.5-1.5V17M10 4h4v3h-4zM10 17l7.5-7.5 2.5 2.5-7.5 7.5H10z" fill="none" stroke="currentColor" stroke-width="1.8" stroke-linejoin="round"/></symbol>
  <symbol id="attachment" viewBox="0 0 24 24"><path d="m19 11.5-7.7 7.7a4.5 4.5 0 0 1-6.4-6.4l8.1-8.1a3 3 0 1 1 4.2 4.2L9.1 17a1.5 1.5 0 1 1-2.1-2.1l7.3-7.3" fill="none" stroke="currentColor" stroke-width="1.9" stroke-linecap="round" stroke-linejoin="round"/></symbol>
  <symbol id="arrow" viewBox="0 0 24 24"><path d="M3 12h17M14 5l7 7-7 7" fill="none" stroke="currentColor" stroke-width="2" stroke-linecap="square" stroke-linejoin="miter"/></symbol>
  <symbol id="lock" viewBox="0 0 24 24"><rect x="5" y="10" width="14" height="10" rx="1" fill="none" stroke="currentColor" stroke-width="1.8"/><path d="M8 10V7a4 4 0 0 1 8 0v3M12 14v2" fill="none" stroke="currentColor" stroke-width="1.8" stroke-linecap="round"/></symbol>
  <symbol id="clock" viewBox="0 0 24 24"><circle cx="12" cy="12" r="8.5" fill="none" stroke="currentColor" stroke-width="1.8"/><path d="M12 7v5l3.5 2" fill="none" stroke="currentColor" stroke-width="1.8" stroke-linecap="round"/></symbol>
</svg>
