<svg xmlns="http://www.w3.org/2000/svg" aria-hidden="true" style="display:none">
  <symbol id="mark" viewBox="0 0 32 32">
    <path fill="currentColor" d="M13.06 4.93L13.06 4.93Q14.16 4.93 15.08 5.15Q16.01 5.37 17.13 5.72L17.13 5.72Q17.68 5.90 17.94 5.87Q18.21 5.85 18.52 5.59L18.52 5.59Q18.67 5.48 19.04 5.48L19.04 5.48Q19.24 5.48 19.20 5.65L19.20 5.65Q17.81 6.93 16.24 8.39Q14.67 9.86 13.04 11.39Q11.41 12.91 9.79 14.45Q8.18 15.99 6.68 17.40L6.68 17.40Q7.21 17.36 7.76 17.50Q8.31 17.64 8.99 17.82Q9.67 18.00 10.57 18.16Q11.48 18.33 12.71 18.33L12.71 18.33Q14.25 18.33 15.22 17.66Q16.18 16.98 16.87 15.42L16.87 15.42Q16.95 15.38 17.06 15.43Q17.17 15.49 17.13 15.60L17.13 15.60Q16.69 16.52 16.21 17.21Q15.72 17.91 15.12 18.37Q14.51 18.83 13.73 19.05Q12.95 19.27 11.96 19.27L11.96 19.27Q11.17 19.27 10.54 19.20Q9.91 19.12 9.36 18.99Q8.81 18.85 8.32 18.69Q7.82 18.52 7.27 18.37L7.27 18.37Q6.59 18.17 6.12 18.32Q5.65 18.46 5.03 19.10L5.03 19.10Q4.90 19.14 4.72 19.02Q4.55 18.90 4.61 18.79L4.61 18.79Q6.48 17.03 8.09 15.51Q9.69 13.99 11.21 12.55Q12.73 11.11 14.27 9.66Q15.81 8.21 17.53 6.58L17.53 6.58Q16.38 6.27 15.15 6.05Q13.92 5.83 12.60 5.83L12.60 5.83Q11.10 5.83 10.37 6.64Q9.63 7.46 9.41 8.82L9.41 8.82Q9.34 8.91 9.24 8.88Q9.14 8.84 9.14 8.73L9.14 8.73Q9.30 7.90 9.57 7.19Q9.85 6.49 10.31 5.98Q10.77 5.48 11.44 5.20Q12.11 4.93 13.06 4.93Z"/>
    <path fill="currentColor" d="M19.72 20.35L19.72 20.35Q19.39 22.24 18.66 23.67Q17.93 25.10 16.89 26.06Q15.84 27.02 14.52 27.50Q13.20 27.98 11.71 27.98L11.71 27.98Q10.15 27.98 9.42 27.30Q8.69 26.62 8.69 25.61L8.69 25.61Q8.69 25.17 8.83 24.72Q8.96 24.27 9.19 23.87Q9.42 23.47 9.76 23.17Q10.10 22.86 10.50 22.66L10.50 22.66Q10.63 22.66 10.66 22.73Q10.70 22.79 10.65 22.88L10.65 22.88Q10.08 23.19 9.77 23.75Q9.46 24.31 9.46 24.99L9.46 24.99Q9.46 26.05 10.20 26.72Q10.94 27.39 12.28 27.39L12.28 27.39Q13.62 27.39 14.67 27.05Q15.71 26.71 16.50 25.96Q17.30 25.21 17.84 24.01Q18.37 22.81 18.68 21.10L18.68 21.10Q18.97 19.51 19.27 18.46Q19.56 17.40 19.89 16.71Q20.22 16.02 20.60 15.64Q20.97 15.27 21.41 15.03L21.41 15.03Q20.84 14.81 20.07 14.66Q19.30 14.52 18.40 14.52L18.40 14.52Q17.03 14.52 16.00 14.99Q14.96 15.47 14.32 16.28Q13.67 17.09 13.45 18.20Q13.23 19.32 13.49 20.59L13.49 20.59Q13.49 20.70 13.40 20.75Q13.31 20.79 13.25 20.68L13.25 20.68Q12.94 19.32 13.20 18.07Q13.47 16.83 14.23 15.88Q14.99 14.94 16.24 14.38Q17.49 13.82 19.19 13.82L19.19 13.82Q20.11 13.82 20.97 14.01Q21.83 14.21 22.51 14.52L22.51 14.52Q22.60 14.65 22.50 14.75Q22.40 14.85 22.07 15.00L22.07 15.00Q21.61 15.20 21.27 15.55Q20.93 15.91 20.66 16.52Q20.40 17.14 20.17 18.07Q19.94 19.01 19.72 20.35ZM21.12 19.89L21.12 19.89Q21.61 21.60 22.09 22.98Q22.58 24.35 23.15 25.31Q23.72 26.27 24.45 26.77Q25.17 27.28 26.12 27.28L26.12 27.28Q26.60 27.28 27.01 27.03Q27.42 26.77 27.66 26.38L27.66 26.38Q27.72 26.31 27.79 26.38Q27.86 26.44 27.83 26.55L27.83 26.55Q27.50 27.17 26.92 27.58Q26.34 27.98 25.48 27.98L25.48 27.98Q24.47 27.98 23.70 27.38Q22.93 26.77 22.33 25.74Q21.74 24.71 21.29 23.34Q20.84 21.98 20.46 20.48L20.46 20.48Q20.40 20.26 20.55 20.04L20.55 20.04Q21.54 18.77 22.61 17.62Q23.68 16.48 24.73 15.64Q25.79 14.81 26.78 14.31Q27.77 13.82 28.60 13.82L28.60 13.82Q28.98 13.82 29.24 14.10Q29.51 14.39 29.51 14.85L29.51 14.85Q29.51 15.16 29.45 15.41Q29.40 15.66 29.24 16.02L29.24 16.02Q29.18 16.08 29.11 16.06Q29.04 16.04 29.02 15.95L29.02 15.95Q29.13 15.42 28.88 15.04Q28.63 14.65 27.90 14.65L27.90 14.65Q27.28 14.65 26.47 15.04Q25.66 15.42 24.75 16.11Q23.85 16.81 22.92 17.78Q21.98 18.74 21.12 19.89Z"/>
  </symbol>
  <symbol id="eye" viewBox="0 0 24 24"><path d="M2.5 12s3.5-6 9.5-6 9.5 6 9.5 6-3.5 6-9.5 6-9.5-6-9.5-6Z" fill="none" stroke="currentColor" stroke-width="1.9"/><circle cx="12" cy="12" r="2.7" fill="none" stroke="currentColor" stroke-width="1.9"/></symbol>
  <symbol id="copy" viewBox="0 0 24 24"><rect x="9" y="9" width="11" height="11" rx="2" fill="none" stroke="currentColor" stroke-width="1.8"/><path d="M6 15H5a2 2 0 0 1-2-2V5a2 2 0 0 1 2-2h8a2 2 0 0 1 2 2v1" fill="none" stroke="currentColor" stroke-width="1.8" stroke-linecap="round"/></symbol>
  <symbol id="attachment" viewBox="0 0 24 24"><path d="m19 11.5-7.7 7.7a4.5 4.5 0 0 1-6.4-6.4l8.1-8.1a3 3 0 1 1 4.2 4.2L9.1 17a1.5 1.5 0 1 1-2.1-2.1l7.3-7.3" fill="none" stroke="currentColor" stroke-width="1.9" stroke-linecap="round" stroke-linejoin="round"/></symbol>
  <symbol id="arrow" viewBox="0 0 24 24"><path d="M3 12h17M14 5l7 7-7 7" fill="none" stroke="currentColor" stroke-width="2" stroke-linecap="square" stroke-linejoin="miter"/></symbol>
  <symbol id="lock" viewBox="0 0 24 24"><rect x="5" y="10" width="14" height="10" rx="1" fill="none" stroke="currentColor" stroke-width="1.8"/><path d="M8 10V7a4 4 0 0 1 8 0v3M12 14v2" fill="none" stroke="currentColor" stroke-width="1.8" stroke-linecap="round"/></symbol>
  <symbol id="clock" viewBox="0 0 24 24"><circle cx="12" cy="12" r="8.5" fill="none" stroke="currentColor" stroke-width="1.8"/><path d="M12 7v5l3.5 2" fill="none" stroke="currentColor" stroke-width="1.8" stroke-linecap="round"/></symbol>
</svg>

